<?xml version="1.0" encoding="UTF-8"?><svg id="Capa_1" xmlns="http://www.w3.org/2000/svg" viewBox="0 0 324.71 87.5"><defs><style>.cls-1,.cls-2{fill:#e7699d;}.cls-2{font-family:Serenity-Medium, Serenity;font-size:46.62px;font-weight:500;}.cls-3{fill:#212121;}</style></defs><g><text class="cls-2" transform="translate(141.97 31.23)"><tspan x="0" y="0">styled</tspan></text><g><path class="cls-3" d="M167.17,53.14s-5.24-2.26-9.32-2.26c-1.31,0-2.4,.44-2.4,1.46,0,3.28,15.36,2.11,15.36,12.23,0,6.12-5.83,10.19-13.11,10.19-8.01,0-14.63-4.66-14.63-4.66,1.75-2.4,3.42-4.73,5.17-7.14,0,0,4.81,3.57,9.39,3.57,1.46,0,2.26-.8,2.26-1.75,0-3.57-15.22-2.26-15.22-12.45,0-5.9,4.44-9.17,12.52-9.17,6.41,0,11.58,2.47,11.58,2.47l-1.6,7.5Z"/><path class="cls-3" d="M208.02,58.02c0,8.96-5.1,16.53-14.42,16.53-3.5,0-6.48-1.09-6.48-1.09v9.76l-11.14,2.4c-.07,0,0-11.21,0-42.01h11.07v5.39c.22-.73,2.18-5.97,8.52-5.97,7.43,0,12.45,5.75,12.45,15Zm-15.87-6.19c-3.13,0-5.1,3.2-5.1,10.34v3.2c.87,.44,2.18,.87,3.93,.87,3.93,0,5.75-3.57,5.75-7.86,0-3.49-1.31-6.55-4.59-6.55Z"/><path class="cls-3" d="M229.29,43.09c8.96,0,14.34,4.66,15.44,5.61v25.49h-11.07v-5.46c-.07,.29-1.82,6.04-8.52,6.04-7.43,0-12.45-5.75-12.45-15s5.9-16.68,16.6-16.68Zm-.73,22.86c3.13,0,5.1-3.2,5.1-10.34v-3.2c-.87-.44-2.18-.87-3.93-.87-3.93,0-5.75,3.57-5.75,7.86,0,3.5,1.31,6.55,4.59,6.55Z"/><path class="cls-3" d="M284.12,58.02c0,8.96-5.1,16.53-14.42,16.53-3.49,0-6.48-1.09-6.48-1.09v9.76l-11.14,2.4c-.07,0,0-11.21,0-42.01h11.07v5.39c.22-.73,2.19-5.97,8.52-5.97,7.43,0,12.45,5.75,12.45,15Zm-15.87-6.19c-3.13,0-5.1,3.2-5.1,10.34v3.2c.87,.44,2.19,.87,3.93,.87,3.93,0,5.75-3.57,5.75-7.86,0-3.49-1.31-6.55-4.59-6.55Z"/><path class="cls-3" d="M322.21,58.02c0,8.96-5.1,16.53-14.42,16.53-3.5,0-6.48-1.09-6.48-1.09v9.76l-11.14,2.4c-.07,0,0-11.21,0-42.01h11.07v5.39c.22-.73,2.18-5.97,8.52-5.97,7.43,0,12.45,5.75,12.45,15Zm-15.87-6.19c-3.13,0-5.1,3.2-5.1,10.34v3.2c.87,.44,2.18,.87,3.93,.87,3.93,0,5.75-3.57,5.75-7.86,0-3.49-1.31-6.55-4.59-6.55Z"/></g></g><g><path class="cls-1" d="M56.66,75.19c-.97,0-1.95-.06-2.93-.18-8.35-1.05-15.63-6.93-18.57-14.96-1.49-4.09-1.79-8.31-.89-12.56,.98-6.61,3.03-12.96,6.1-18.86,1.88-3.62,4.14-7.06,6.73-10.23,2.36-2.9,5.87-4.56,9.62-4.56,3.75,0,7.26,1.66,9.62,4.56,2.58,3.17,4.84,6.61,6.73,10.23,3.07,5.91,5.12,12.25,6.1,18.86,.34,1.59,.51,3.19,.51,4.76,0,6.59-2.84,12.86-7.78,17.22-4.21,3.71-9.63,5.72-15.22,5.72Zm.05-55.83c-2.08,0-4.02,.92-5.33,2.52-2.34,2.88-4.4,6-6.1,9.29-2.8,5.38-4.66,11.17-5.55,17.2l-.03,.18c-.7,3.24-.48,6.46,.66,9.59,2.23,6.11,7.75,10.58,14.07,11.37,5.09,.65,9.99-.85,13.79-4.2,3.75-3.31,5.9-8.07,5.9-13.07,0-1.22-.14-2.46-.4-3.69l-.03-.18c-.88-6.03-2.75-11.82-5.55-17.2-1.71-3.29-3.76-6.41-6.1-9.29-1.31-1.6-3.25-2.52-5.33-2.52Z"/><g><path class="cls-1" d="M98.77,33.09c-2.23-2.23-5.3-3.32-8.42-3-3.42,.35-6.81,1.05-10.07,2.08-.75,.24-1.47,.53-2.2,.8,.58,1.44,1.1,2.9,1.57,4.37,.68-.25,1.35-.52,2.04-.74,2.97-.94,6.04-1.57,9.14-1.89,1.73-.17,3.43,.43,4.66,1.67,1.24,1.24,1.84,2.94,1.67,4.66-.32,3.1-.95,6.18-1.89,9.14-1.54,4.86-3.87,9.41-6.93,13.52l-.09,.13c-.57,.89-1.23,1.71-1.95,2.43-2.97,2.97-7.08,4.52-11.27,4.26-.08,0-.16-.02-.23-.03-.36,.35-.7,.72-1.08,1.06-1.15,1.01-2.38,1.91-3.68,2.7,1.51,.49,3.09,.81,4.7,.91,5.53,.35,10.94-1.7,14.85-5.61,.94-.94,1.79-1.99,2.53-3.13,3.34-4.51,5.89-9.5,7.58-14.83,1.03-3.27,1.74-6.66,2.08-10.07,.32-3.13-.78-6.2-3-8.42Z"/><path class="cls-1" d="M38.4,70.51c-4.19,.26-8.3-1.29-11.27-4.26-.72-.72-1.38-1.54-1.95-2.43l-.09-.13c-3.06-4.11-5.39-8.65-6.93-13.52-.94-2.97-1.57-6.04-1.89-9.14-.17-1.73,.43-3.43,1.67-4.66,1.24-1.24,2.94-1.84,4.66-1.67,3.1,.32,6.18,.95,9.14,1.89,.69,.22,1.36,.49,2.03,.74,.47-1.47,.99-2.93,1.57-4.37-.73-.27-1.45-.56-2.2-.8-3.27-1.03-6.66-1.74-10.07-2.08-3.12-.32-6.19,.78-8.42,3-2.23,2.23-3.32,5.3-3,8.42,.35,3.42,1.05,6.8,2.08,10.07,1.69,5.33,4.24,10.32,7.58,14.83,.74,1.14,1.59,2.19,2.53,3.13,3.91,3.91,9.33,5.96,14.85,5.61,1.63-.1,3.22-.43,4.74-.92-1.72-1.06-3.32-2.32-4.76-3.75-.09,0-.18,.03-.28,.03Z"/></g><ellipse class="cls-1" cx="56.71" cy="83.83" rx="27.59" ry="1.92"/><circle class="cls-1" cx="4.92" cy="24.21" r="2.71"/><circle class="cls-1" cx="108.49" cy="24.21" r="2.71"/><circle class="cls-1" cx="56.71" cy="4.39" r="2.71"/></g></svg>