<svg width="124" height="34" viewBox="0 0 124 34" fill="none" xmlns="http://www.w3.org/2000/svg">
<path d="M4.895 12.54C5.49 12.47 6.26 12.4 6.925 12.4C8.29 12.4 9.41 12.855 10.18 13.73C10.915 14.535 11.3 15.62 11.3 17.02C11.3 18.665 10.845 19.855 10.04 20.555C9.165 21.325 8.01 21.57 6.855 21.57C6.015 21.57 5.455 21.465 4.895 21.255V12.54ZM3.04 8.935C1.255 9.25 0.275 9.985 0.275 12.05V31.195C0.275 32.42 1.325 33.435 2.585 33.435C3.81 33.435 4.895 32.42 4.895 31.195V25.07C5.665 25.28 6.435 25.35 7.345 25.35C9.795 25.35 12.315 24.58 13.995 22.725C15.15 21.43 15.885 19.54 15.885 17.02C15.885 14.5 15.045 12.54 13.68 11.175C11.965 9.46 9.41 8.655 6.435 8.655C5.175 8.655 4.02 8.76 3.04 8.935ZM32.0148 20.59C30.8598 20.59 29.9498 21.675 27.4998 21.675C25.2248 21.675 23.7898 20.52 23.3698 18.385H32.1198C33.5548 18.385 34.3948 17.44 34.3948 15.795C34.3948 14.22 33.9398 12.33 32.3998 10.755C31.1398 9.495 29.2848 8.655 26.6948 8.655C24.1748 8.655 22.1798 9.495 20.7798 10.895C19.3798 12.33 18.5048 14.395 18.5048 16.81C18.5048 19.33 19.3448 21.465 20.8498 23.005C22.3198 24.51 24.4898 25.35 27.1848 25.35C28.7248 25.35 30.2998 25.175 31.7348 24.58C33.0648 24.055 33.7298 23.39 33.7298 22.445C33.7298 21.43 32.9948 20.59 32.0148 20.59ZM23.3348 15.34C23.6498 13.485 24.8048 12.295 26.7298 12.295C28.6198 12.295 29.7748 13.66 29.9148 15.34H23.3348ZM37.8385 23.11C37.8385 24.335 38.8885 25.35 40.1485 25.35C41.4085 25.35 42.4585 24.335 42.4585 23.11V3.125C42.4585 1.865 41.4435 0.885 40.1485 0.885C38.8885 0.885 37.8385 1.865 37.8385 3.125V23.11ZM46.7186 18.07C46.7186 20.17 47.2086 21.64 48.1186 22.83C49.4836 24.545 51.7936 25.35 54.6636 25.35C57.4986 25.35 59.7736 24.58 61.1736 22.83C62.1186 21.675 62.5736 20.17 62.5736 18.07V10.895C62.5736 9.67 61.5586 8.655 60.2636 8.655C58.9686 8.655 57.9536 9.67 57.9536 10.895V17.79C57.9536 18.7 57.8136 19.365 57.4986 19.96C57.0436 20.835 56.1336 21.43 54.6636 21.43C53.1936 21.43 52.2836 20.835 51.7936 19.96C51.4786 19.365 51.3386 18.7 51.3386 17.79V10.895C51.3386 9.67 50.3236 8.655 49.0286 8.655C47.7336 8.655 46.7186 9.67 46.7186 10.895V18.07Z" fill="#C007E5"/>
<path d="M75.397 7.15L78.442 16.11H72.282L75.397 7.15ZM80.892 23.67C81.207 24.755 82.082 25.35 83.307 25.35C84.777 25.35 85.862 24.475 85.862 23.04C85.862 22.725 85.722 22.2 85.617 21.92L79.002 3.44C78.512 2.005 77.497 0.814998 75.432 0.814998C73.332 0.814998 72.422 2.005 71.897 3.44L65.177 21.92C65.072 22.235 64.897 22.725 64.897 23.04C64.897 24.265 65.807 25.35 67.312 25.35C68.677 25.35 69.447 24.72 69.797 23.67L71.022 20.17H79.667L80.892 23.67ZM93.0786 12.54C93.6736 12.47 94.4436 12.4 95.1086 12.4C96.4736 12.4 97.5936 12.855 98.3636 13.73C99.0986 14.535 99.4836 15.62 99.4836 17.02C99.4836 18.665 99.0286 19.855 98.2236 20.555C97.3486 21.325 96.1936 21.57 95.0386 21.57C94.1986 21.57 93.6386 21.465 93.0786 21.255V12.54ZM91.2236 8.935C89.4386 9.25 88.4586 9.985 88.4586 12.05V31.195C88.4586 32.42 89.5086 33.435 90.7686 33.435C91.9936 33.435 93.0786 32.42 93.0786 31.195V25.07C93.8486 25.28 94.6186 25.35 95.5286 25.35C97.9786 25.35 100.499 24.58 102.179 22.725C103.334 21.43 104.069 19.54 104.069 17.02C104.069 14.5 103.229 12.54 101.864 11.175C100.149 9.46 97.5936 8.655 94.6186 8.655C93.3586 8.655 92.2036 8.76 91.2236 8.935ZM112.253 12.54C112.848 12.47 113.618 12.4 114.283 12.4C115.648 12.4 116.768 12.855 117.538 13.73C118.273 14.535 118.658 15.62 118.658 17.02C118.658 18.665 118.203 19.855 117.398 20.555C116.523 21.325 115.368 21.57 114.213 21.57C113.373 21.57 112.813 21.465 112.253 21.255V12.54ZM110.398 8.935C108.613 9.25 107.633 9.985 107.633 12.05V31.195C107.633 32.42 108.683 33.435 109.943 33.435C111.168 33.435 112.253 32.42 112.253 31.195V25.07C113.023 25.28 113.793 25.35 114.703 25.35C117.153 25.35 119.673 24.58 121.353 22.725C122.508 21.43 123.243 19.54 123.243 17.02C123.243 14.5 122.403 12.54 121.038 11.175C119.323 9.46 116.768 8.655 113.793 8.655C112.533 8.655 111.378 8.76 110.398 8.935Z" fill="black"/>
</svg>
